<svg xmlns="http://www.w3.org/2000/svg" viewBox="0 0 1100 280" role="img" aria-labelledby="title desc">
  <title id="title">Power chain</title>
  <desc id="desc">Solar panel to CN3065 to battery to node power chain.</desc>
  <style>
    .bg { fill: #fffdf8; }
    .box { fill: #ffffff; stroke: #d5cab7; stroke-width: 2; rx: 18; }
    .title { font: 700 24px Georgia, serif; fill: #1f2430; }
    .label { font: 700 18px sans-serif; fill: #1f2430; }
    .text { font: 14px sans-serif; fill: #4b5563; }
    .arrow { stroke: #d17b0f; stroke-width: 4; fill: none; marker-end: url(#arrow); }
  </style>
  <defs>
    <marker id="arrow" markerWidth="10" markerHeight="10" refX="9" refY="3" orient="auto">
      <path d="M0,0 L10,3 L0,6 Z" fill="#d17b0f" />
    </marker>
  </defs>
  <rect class="bg" width="1100" height="280" rx="24" />
  <text class="title" x="40" y="42">Reference outdoor power chain</text>
  <rect class="box" x="40" y="100" width="180" height="110" />
  <text class="label" x="75" y="145">Solar panel</text>
  <text class="text" x="75" y="170">Charges during the day</text>
  <rect class="box" x="280" y="100" width="180" height="110" />
  <text class="label" x="328" y="145">CN3065</text>
  <text class="text" x="305" y="170">Solar charger controller</text>
  <rect class="box" x="520" y="100" width="180" height="110" />
  <text class="label" x="575" y="145">LiPo</text>
  <text class="text" x="548" y="170">3.7 V battery storage</text>
  <rect class="box" x="760" y="60" width="280" height="70" />
  <text class="label" x="790" y="102">Low-power node path</text>
  <text class="text" x="790" y="122">Pico-based node can stay in the low-voltage path</text>
  <rect class="box" x="760" y="150" width="280" height="70" />
  <text class="label" x="790" y="192">Pi Zero 2W path</text>
  <text class="text" x="790" y="212">Add regulated 5 V boost or dedicated power board</text>
  <path class="arrow" d="M220 155 H270" />
  <path class="arrow" d="M460 155 H510" />
  <path class="arrow" d="M700 130 H750" />
  <path class="arrow" d="M700 190 H750" />
</svg>
